# xmcd
#
# Track frame offsets: 
#        300
#        30784
#        51786
#        94319
#        115721
#        128747
#        163971
#        201429
#        229443
#
# Disc length: 4493 seconds
#
# Revision: 0
# Processed by: cddbd v1.5.2PL0 Copyright (c) Steve Scherf et al.
# Submitted via: ExactAudioCopy v0.95a5
#
DISCID=79118909
DTITLE=Krzak - Live in Waltrop 2001
DYEAR=2005
DGENRE=Rock
TTITLE0=Blues E-dur
TTITLE1=Iluzyt
TTITLE2=Blues H-mol/Smuteczek
TTITLE3=Czakus
TTITLE4=Skalki
TTITLE5=Dla Fredka
TTITLE6=Dzemowa maszynka
TTITLE7=Sciepka
TTITLE8=suplement
EXTD=
EXTT0=
EXTT1=
EXTT2=
EXTT3=
EXTT4=
EXTT5=
EXTT6=
EXTT7=
EXTT8=
PLAYORDER=
